<svg xmlns="http://www.w3.org/2000/svg" viewBox="0 0 179.2 192.7">
  <defs>
    <style>
      .cls-1 { fill: #ffa726; }
      .cls-2 { fill: #fb8c00; }

      .cls-3 { fill: #ffe0b2; }
      .cls-4 { fill: #fff3e0; }
      .cls-5 { fill: #fff; }
      .cls-6 { fill: #fff; }
    </style>
  </defs>
  <title>ngx-multiple-dates</title>
  <g>
    <polygon class="cls-1" points="89.4 0 89.4 0 89.4 0 0 32 13.5 150.4 89.4 192.7 89.4 192.7 89.4 192.7 165.4 150.4 179.2 32 89.4 0" />
    <polygon class="cls-2" points="89.4 0 89.4 21.4 89.4 21.4 89.4 118.7 89.4 118.7 89.4 192.7 89.4 192.7 165.4 150.4 179.2 32 89.4 0" />
  </g>
  <g transform="scale(-0.13) translate(-1171, -279)">
    <path class="cls-6" d="M320-400q-17 0-28.5-11.5T280-440q0-17 11.5-28.5T320-480q17 0 28.5 11.5T360-440q0 17-11.5 28.5T320-400Zm160 0q-17 0-28.5-11.5T440-440q0-17 11.5-28.5T480-480q17 0 28.5 11.5T520-440q0 17-11.5 28.5T480-400Zm160 0q-17 0-28.5-11.5T600-440q0-17 11.5-28.5T640-480q17 0 28.5 11.5T680-440q0 17-11.5 28.5T640-400ZM200-80q-33 0-56.5-23.5T120-160v-560q0-33 23.5-56.5T200-800h40v-80h80v80h320v-80h80v80h40q33 0 56.5 23.5T840-720v560q0 33-23.5 56.5T760-80H200Zm0-80h560v-400H200v400Zm0-480h560v-80H200v80Zm0 0v-80 80Z" />
  </g>
</svg>
